<svg data-v-fde0c5aa="" xmlns="http://www.w3.org/2000/svg" viewBox="0 0 300 300" class="font"><!----><defs data-v-fde0c5aa=""><!----></defs><rect data-v-fde0c5aa="" fill="#FFE01B" x="0" y="0" width="300px" height="300px" class="logo-background-square"></rect><defs data-v-fde0c5aa=""><!----></defs><g data-v-fde0c5aa="" id="4fc3a30e-95a4-400d-a34d-4753658eb18b" fill="#FFFFFF" transform="matrix(2.3367372448535133,0,0,2.3367372448535133,38.107242826097455,137.05356792304673)"><path d="M8.65 8.48C8.15 8.67 7.92 8.48 7.92 7.97L7.92 7.43L7.92 1.44C7.92 0.88 6.26 0.88 6.26 1.44L6.26 4.73L2.45 4.73L2.45 1.20C2.45 0.55 0.81 1.25 0.81 1.90L0.81 9.63C0.81 10.19 2.45 10.19 2.45 9.63L2.45 6.17L6.26 6.17L6.26 7.18L6.26 8.20C6.26 10.19 7.48 10.25 8.65 9.79C9.25 9.52 9.21 8.22 8.65 8.48ZM15.67 8.51L11.70 8.51L11.70 6.22L14.69 6.22C15.23 6.22 15.23 4.77 14.69 4.77L11.72 4.77L11.72 2.58L15.08 2.58C15.74 2.58 16.45 1.13 15.79 1.13L10.39 1.13C10.19 1.13 10.08 1.41 10.08 1.72L10.08 9.34C10.08 9.65 10.18 9.95 10.39 9.95L15.67 9.95C16.23 9.95 16.23 8.51 15.67 8.51ZM23.07 8.44C22.93 8.50 22.81 8.53 22.68 8.53C22.19 8.53 21.85 8.05 21.52 7.56C21.35 7.31 21.18 7.04 20.99 6.78C22.86 6.68 23.81 5.75 23.81 3.86C23.81 2.04 22.43 1.04 20.06 1.04C18.19 1.04 17.26 1.43 17.26 1.78L17.26 9.63C17.26 10.19 18.90 10.19 18.90 9.63L18.90 6.76C19.56 7.13 19.99 7.83 20.40 8.47C20.90 9.31 21.39 10.14 22.27 10.14C22.51 10.14 22.78 10.07 23.09 9.95C23.62 9.76 23.62 8.23 23.07 8.44ZM20.22 2.45C21.49 2.45 22.15 2.98 22.15 3.99C22.15 4.94 21.70 5.60 20.33 5.60C19.94 5.60 19.46 5.54 18.90 5.43L18.90 2.65C19.31 2.52 19.77 2.45 20.22 2.45ZM28.83 10.05C31.43 10.05 32.97 8.37 32.97 5.54C32.97 2.70 31.43 1.02 28.83 1.02C26.22 1.02 24.68 2.70 24.68 5.54C24.68 8.37 26.22 10.05 28.83 10.05ZM28.83 8.61C27.29 8.61 26.40 7.48 26.40 5.54C26.40 3.60 27.29 2.46 28.83 2.46C30.35 2.46 31.25 3.60 31.25 5.54C31.25 7.48 30.35 8.61 28.83 8.61ZM40.42 1.04C39.17 1.04 38.28 1.18 37.86 1.43C37.67 1.53 37.59 1.65 37.59 1.78L37.59 9.31C37.59 9.42 37.66 9.51 37.79 9.60C38.19 9.88 39.19 10.05 40.60 10.05C43.23 10.05 44.73 8.43 44.73 5.54C44.73 2.66 43.18 1.04 40.42 1.04ZM40.50 8.61C39.94 8.61 39.51 8.58 39.23 8.50L39.24 2.58C39.52 2.49 39.93 2.46 40.43 2.46C42.21 2.46 43.06 3.49 43.06 5.54C43.06 7.60 42.24 8.61 40.50 8.61ZM51.51 8.51L47.54 8.51L47.54 6.22L50.53 6.22C51.07 6.22 51.07 4.77 50.53 4.77L47.56 4.77L47.56 2.58L50.92 2.58C51.58 2.58 52.29 1.13 51.63 1.13L46.23 1.13C46.03 1.13 45.92 1.41 45.92 1.72L45.92 9.34C45.92 9.65 46.02 9.95 46.23 9.95L51.51 9.95C52.07 9.95 52.07 8.51 51.51 8.51ZM58.66 8.53L54.73 8.53L54.73 1.20C54.73 0.55 53.10 1.25 53.10 1.90L53.10 9.35C53.10 9.65 53.19 9.95 53.41 9.95L58.66 9.95C59.21 9.95 59.21 8.53 58.66 8.53ZM60.66 9.63C60.66 10.19 62.31 10.19 62.31 9.63L62.31 1.22C62.31 0.56 60.66 1.26 60.66 1.92ZM63.53 1.50C64.64 4.69 66.36 9.07 67.09 9.84C67.38 10.12 67.86 10.12 68.17 9.84C68.88 9.07 70.62 4.69 71.72 1.50C71.95 0.88 70.11 0.91 69.94 1.50C69.26 3.63 68.50 5.50 67.62 7.53C66.75 5.50 66.00 3.63 65.31 1.50C65.14 0.91 63.31 0.88 63.53 1.50ZM78.19 8.51L74.23 8.51L74.23 6.22L77.21 6.22C77.76 6.22 77.76 4.77 77.21 4.77L74.24 4.77L74.24 2.58L77.60 2.58C78.26 2.58 78.97 1.13 78.32 1.13L72.91 1.13C72.72 1.13 72.60 1.41 72.60 1.72L72.60 9.34C72.60 9.65 72.70 9.95 72.91 9.95L78.19 9.95C78.75 9.95 78.75 8.51 78.19 8.51ZM85.60 8.44C85.46 8.50 85.33 8.53 85.20 8.53C84.71 8.53 84.38 8.05 84.04 7.56C83.87 7.31 83.71 7.04 83.51 6.78C85.39 6.68 86.34 5.75 86.34 3.86C86.34 2.04 84.95 1.04 82.59 1.04C80.71 1.04 79.79 1.43 79.79 1.78L79.79 9.63C79.79 10.19 81.42 10.19 81.42 9.63L81.42 6.76C82.08 7.13 82.52 7.83 82.92 8.47C83.43 9.31 83.92 10.14 84.80 10.14C85.04 10.14 85.30 10.07 85.61 9.95C86.14 9.76 86.14 8.23 85.60 8.44ZM82.74 2.45C84.01 2.45 84.67 2.98 84.67 3.99C84.67 4.94 84.22 5.60 82.85 5.60C82.46 5.60 81.98 5.54 81.42 5.43L81.42 2.65C81.83 2.52 82.29 2.45 82.74 2.45ZM93.21 1.50C92.48 3.07 91.80 4.21 90.87 5.53C89.95 4.21 89.26 3.07 88.55 1.50C88.27 0.92 86.53 0.92 86.81 1.50C87.77 3.49 88.70 5.17 90.05 6.86L90.05 9.63C90.05 10.19 91.69 10.19 91.69 9.63L91.69 6.87C93.04 5.18 93.98 3.50 94.93 1.50C95.20 0.92 93.46 0.92 93.21 1.50Z"></path></g><!----><!----></svg>